<svg xmlns="http://www.w3.org/2000/svg" width="15" height="15" viewBox="0 0 15 15">
  <g id="icon_form_calendar" transform="translate(-591 -551)">
    <rect id="사각형" width="15" height="15" transform="translate(591 551)" fill="#fff" opacity="0"/>
    <path id="패스" d="M110.852,867.5h-.741V866H108.63v1.5H102.7V866h-1.481v1.5h-.741a1.484,1.484,0,0,0-1.474,1.5L99,879.5a1.49,1.49,0,0,0,1.481,1.5h10.37a1.5,1.5,0,0,0,1.481-1.5V869A1.5,1.5,0,0,0,110.852,867.5Zm0,12h-10.37V872h10.37Zm-7.407-4.5h-1.481v-1.5h1.481Zm2.963,0h-1.481v-1.5h1.481Zm2.963,0h-1.481v-1.5h1.481Zm-5.926,3h-1.481v-1.5h1.481Zm2.963,0h-1.481v-1.5h1.481Zm2.963,0h-1.481v-1.5h1.481Z" transform="translate(492.833 -315)" fill="#637381"/>
  </g>
</svg>
